<svg width="22" height="22" viewBox="0 0 22 22" fill="none" xmlns="http://www.w3.org/2000/svg">
<path fill-rule="evenodd" clip-rule="evenodd" d="M20.4545 0.144914C20.6479 -0.0482364 20.9614 -0.0483727 21.1547 0.144914C21.348 0.33823 21.3479 0.651722 21.1547 0.845109L11.6997 10.2992L21.8549 20.4545C22.0482 20.6479 22.0482 20.9613 21.8549 21.1547C21.6616 21.348 21.3481 21.3479 21.1547 21.1547L10.9995 10.9994L0.845171 21.1547C0.651794 21.3479 0.338333 21.348 0.144976 21.1547C-0.0483521 20.9613 -0.0482982 20.6479 0.144976 20.4545L10.2993 10.2992L0.845171 0.845109C0.652017 0.651724 0.651914 0.338235 0.845171 0.144914C1.03849 -0.0483263 1.35199 -0.0482349 1.54537 0.144914L10.9995 9.59902L20.4545 0.144914Z" fill="#222222"/>
</svg>
