<svg width="14" height="15" viewBox="0 0 14 15" fill="none" xmlns="http://www.w3.org/2000/svg">
<path d="M4.5625 6.55882C4.5625 7.16143 4.81931 7.73936 5.27642 8.16546C5.73354 8.59157 6.35353 8.83096 7 8.83096C7.64646 8.83096 8.26645 8.59157 8.72357 8.16546C9.18069 7.73936 9.4375 7.16143 9.4375 6.55882C9.4375 5.95621 9.18069 5.37828 8.72357 4.95217C8.26645 4.52606 7.64646 4.28668 7 4.28668C6.35353 4.28668 5.73354 4.52606 5.27642 4.95217C4.81931 5.37828 4.5625 5.95621 4.5625 6.55882Z" stroke="#5A6078" stroke-linecap="round" stroke-linejoin="round"/>
<path d="M11.5963 10.8433L8.14887 14.0569C7.84418 14.3406 7.4311 14.5 7.00041 14.5C6.56971 14.5 6.15664 14.3406 5.85194 14.0569L2.40369 10.8433C1.49468 9.99593 0.875651 8.91631 0.624874 7.74098C0.374097 6.56565 0.502839 5.3474 0.994818 4.24027C1.4868 3.13315 2.31992 2.18687 3.38883 1.52111C4.45774 0.855348 5.71444 0.5 7 0.5C8.28556 0.5 9.54226 0.855348 10.6112 1.52111C11.6801 2.18687 12.5132 3.13315 13.0052 4.24027C13.4972 5.3474 13.6259 6.56565 13.3751 7.74098C13.1243 8.91631 12.5053 9.99593 11.5963 10.8433Z" stroke="#5A6078" stroke-linecap="round" stroke-linejoin="round"/>
</svg>
