<svg width="12" height="15" viewBox="0 0 12 15" fill="none" xmlns="http://www.w3.org/2000/svg">
<path d="M7.57143 0.5V3.61111C7.57143 3.81739 7.65421 4.01522 7.80156 4.16108C7.94891 4.30694 8.14876 4.38889 8.35714 4.38889H11.5M7.57143 0.5H2.07143C1.65466 0.5 1.25496 0.663888 0.960261 0.955612C0.665561 1.24733 0.5 1.643 0.5 2.05556V12.9444C0.5 13.357 0.665561 13.7527 0.960261 14.0444C1.25496 14.3361 1.65466 14.5 2.07143 14.5H9.92857C10.3453 14.5 10.745 14.3361 11.0397 14.0444C11.3344 13.7527 11.5 13.357 11.5 12.9444V4.38889M7.57143 0.5L11.5 4.38889M3.64286 9.05556V9.06333M6 9.05556V9.06333M8.35714 9.05556V9.06333" stroke="#5A6078" stroke-linecap="round" stroke-linejoin="round"/>
</svg>
