<svg width="13" height="17" viewBox="0 0 13 17" fill="none" xmlns="http://www.w3.org/2000/svg">
<path d="M8.21429 0.5V4.05556C8.21429 4.2913 8.30459 4.5174 8.46534 4.68409C8.62608 4.85079 8.8441 4.94444 9.07143 4.94444H12.5M8.21429 0.5H2.21429C1.75963 0.5 1.32359 0.687301 1.0021 1.0207C0.680612 1.3541 0.5 1.80628 0.5 2.27778V14.7222C0.5 15.1937 0.680612 15.6459 1.0021 15.9793C1.32359 16.3127 1.75963 16.5 2.21429 16.5H10.7857C11.2404 16.5 11.6764 16.3127 11.9979 15.9793C12.3194 15.6459 12.5 15.1937 12.5 14.7222V4.94444M8.21429 0.5L12.5 4.94444M3.92857 12.9444H9.07143M3.92857 9.38889H9.07143" stroke="#5A6078" stroke-linecap="round" stroke-linejoin="round"/>
</svg>
