<svg width="15" height="15" viewBox="0 0 15 15" fill="none" xmlns="http://www.w3.org/2000/svg">
<path d="M4.54445 8.43333C5.33599 6.33722 6.67877 4.49369 8.43105 3.09734C10.1833 1.701 12.2801 0.803644 14.5 0.5C14.1964 2.71992 13.299 4.81668 11.9026 6.56896C10.5063 8.32123 8.66277 9.66401 6.56665 10.4556M6.41109 5.16667C7.92244 5.86423 9.13574 7.07754 9.83331 8.58889M0.5 14.5V11.3889C0.5 10.7736 0.682463 10.1721 1.02432 9.66045C1.36617 9.14883 1.85206 8.75007 2.42054 8.5146C2.98902 8.27912 3.61456 8.21751 4.21806 8.33756C4.82155 8.4576 5.3759 8.7539 5.811 9.189C6.24609 9.6241 6.5424 10.1784 6.66244 10.7819C6.78248 11.3854 6.72087 12.011 6.4854 12.5795C6.24993 13.1479 5.85117 13.6338 5.33955 13.9757C4.82793 14.3175 4.22643 14.5 3.61111 14.5H0.5Z" stroke="#7B83A4" stroke-linecap="round" stroke-linejoin="round"/>
</svg>
